<svg xmlns="http://www.w3.org/2000/svg" viewBox="0 0 32 32" width="32" height="32">
  <rect width="32" height="32" rx="6" fill="#0f0f23"/>
  <defs>
    <linearGradient id="g" x1="0%" y1="0%" x2="100%" y2="100%">
      <stop offset="0%" stop-color="#e94560"/>
      <stop offset="100%" stop-color="#ff6b6b"/>
    </linearGradient>
  </defs>
  <!-- Left hemisphere -->
  <path d="M16 6 C16 6,13.5 4.5,11 5.5 C8 6.8,6.5 9,6 11.5 C5.5 14,6 15.5,5.5 17 C5 19,3.5 19.5,4 22 C4.3 24,6 25.2,8 25.5 C9.5 25.7,11 25,12.5 24.5 C14 24,15.5 23,16 22" fill="none" stroke="url(#g)" stroke-width="1.8" stroke-linecap="round"/>
  <path d="M9.5 10 C10.5 11.5,13 11.8,15 10.5" fill="none" stroke="url(#g)" stroke-width="1.2" stroke-linecap="round" opacity="0.7"/>
  <path d="M8 15 C9.5 16.5,12.5 16.8,15 15" fill="none" stroke="url(#g)" stroke-width="1.2" stroke-linecap="round" opacity="0.6"/>
  <path d="M7 20 C9 21.5,12 21.8,15 20" fill="none" stroke="url(#g)" stroke-width="1" stroke-linecap="round" opacity="0.5"/>
  <!-- Right hemisphere -->
  <path d="M16 6 C16 6,18.5 4.5,21 5.5 C24 6.8,25.5 9,26 11.5 C26.5 14,26 15.5,26.5 17 C27 19,28.5 19.5,28 22 C27.7 24,26 25.2,24 25.5 C22.5 25.7,21 25,19.5 24.5 C18 24,16.5 23,16 22" fill="none" stroke="url(#g)" stroke-width="1.8" stroke-linecap="round"/>
  <path d="M22.5 10 C21.5 11.5,19 11.8,17 10.5" fill="none" stroke="url(#g)" stroke-width="1.2" stroke-linecap="round" opacity="0.7"/>
  <path d="M24 15 C22.5 16.5,19.5 16.8,17 15" fill="none" stroke="url(#g)" stroke-width="1.2" stroke-linecap="round" opacity="0.6"/>
  <path d="M25 20 C23 21.5,20 21.8,17 20" fill="none" stroke="url(#g)" stroke-width="1" stroke-linecap="round" opacity="0.5"/>
  <!-- Synapse -->
  <circle cx="16" cy="15" r="1.2" fill="#ff6b6b" opacity="0.8"/>
</svg>
