<svg xmlns="http://www.w3.org/2000/svg" viewBox="0 0 280 48" width="280" height="48">
  <defs>
    <linearGradient id="brainGrad" x1="0%" y1="0%" x2="100%" y2="100%">
      <stop offset="0%" stop-color="#e94560"/>
      <stop offset="100%" stop-color="#ff6b6b"/>
    </linearGradient>
  </defs>

  <!-- Brain icon (compact) -->
  <g transform="translate(4, 4) scale(0.8)">
    <!-- Left hemisphere -->
    <path d="
      M 25 8
      C 25 8, 21 5, 17 7
      C 12 9, 9 14, 8 19
      C 7 23, 8 26, 7 29
      C 6 33, 4 34, 5 38
      C 5.5 41, 8 43, 12 43.5
      C 15 43.8, 18 42, 21 41
      C 23 40, 24.5 39, 25 37
    " fill="none" stroke="url(#brainGrad)" stroke-width="2.2" stroke-linecap="round"/>
    <path d="M 14 16 C 16 19, 21 19.5, 24 17" fill="none" stroke="url(#brainGrad)" stroke-width="1.5" stroke-linecap="round" opacity="0.7"/>
    <path d="M 11 25 C 14 27, 19 27.5, 23 25" fill="none" stroke="url(#brainGrad)" stroke-width="1.5" stroke-linecap="round" opacity="0.6"/>
    <path d="M 9 33 C 13 35, 18 35.5, 23 33" fill="none" stroke="url(#brainGrad)" stroke-width="1.2" stroke-linecap="round" opacity="0.5"/>

    <!-- Right hemisphere -->
    <path d="
      M 25 8
      C 25 8, 29 5, 33 7
      C 38 9, 41 14, 42 19
      C 43 23, 42 26, 43 29
      C 44 33, 46 34, 45 38
      C 44.5 41, 42 43, 38 43.5
      C 35 43.8, 32 42, 29 41
      C 27 40, 25.5 39, 25 37
    " fill="none" stroke="url(#brainGrad)" stroke-width="2.2" stroke-linecap="round"/>
    <path d="M 36 16 C 34 19, 29 19.5, 26 17" fill="none" stroke="url(#brainGrad)" stroke-width="1.5" stroke-linecap="round" opacity="0.7"/>
    <path d="M 39 25 C 36 27, 31 27.5, 27 25" fill="none" stroke="url(#brainGrad)" stroke-width="1.5" stroke-linecap="round" opacity="0.6"/>
    <path d="M 41 33 C 37 35, 32 35.5, 27 33" fill="none" stroke="url(#brainGrad)" stroke-width="1.2" stroke-linecap="round" opacity="0.5"/>

    <!-- Center synapse -->
    <circle cx="25" cy="22" r="2" fill="#e94560" opacity="0.5"/>
    <circle cx="25" cy="22" r="1" fill="#ff6b6b" opacity="0.9"/>
  </g>

  <!-- Text: OneBrain.rocks -->
  <text x="52" y="33" font-family="-apple-system, BlinkMacSystemFont, 'Segoe UI', sans-serif" font-size="24" letter-spacing="-0.5" fill="#e0e0e0">
    <tspan font-weight="700">One</tspan><tspan font-weight="700" fill="url(#brainGrad)">Brain</tspan><tspan font-weight="300" opacity="0.4">.rocks</tspan>
  </text>
</svg>
